<?xml version="1.0" encoding="UTF-8" standalone="no"?><!DOCTYPE svg PUBLIC "-//W3C//DTD SVG 1.1//EN" "http://www.w3.org/Graphics/SVG/1.1/DTD/svg11.dtd"><svg width="100%" height="100%" viewBox="0 0 800 800" version="1.1" xmlns="http://www.w3.org/2000/svg" xmlns:xlink="http://www.w3.org/1999/xlink" xml:space="preserve" xmlns:serif="http://www.serif.com/" style="fill-rule:evenodd;clip-rule:evenodd;stroke-linecap:round;stroke-linejoin:round;stroke-miterlimit:1.5;"><path d="M340.458,139.796c35.922,10.683 52.604,61.328 37.229,113.027c-15.374,51.698 -57.021,84.997 -92.943,74.314c-35.922,-10.683 -52.604,-61.329 -37.229,-113.027c15.375,-51.698 57.021,-84.997 92.943,-74.314Z" style="fill:#ebebeb;fill-opacity:0;stroke:#810000;stroke-width:35px;"/><ellipse cx="329.952" cy="200.343" rx="3.259" ry="7.195" style="fill:#ebebeb;fill-opacity:0;stroke:#800000;stroke-width:15px;"/><path d="M278.181,107.017c-26.261,-47.153 -74.11,-70.585 -106.873,-52.337c-32.763,18.247 -38.034,71.264 -11.773,118.416c-26.261,-47.152 -20.99,-100.169 11.773,-118.416c32.763,-18.248 80.612,5.184 106.873,52.337Z" style="fill:#ebebeb;fill-opacity:0;stroke:#810000;stroke-width:35px;"/><path d="M513.68,752.975c126.19,0 228.488,-93.283 228.488,-208.352c0,-114.993 -102.382,-208.352 -228.488,-208.352c-39.232,0 -77.803,9.211 -111.998,26.747c34.195,-17.536 72.766,-26.747 111.998,-26.747c126.106,0 228.488,93.359 228.488,208.352c0,115.069 -102.298,208.352 -228.488,208.352Z" style="fill:#ebebeb;fill-opacity:0;stroke:#800000;stroke-width:35px;"/><path d="M57.626,602.996c44.181,28.962 93.889,55.551 146.011,78.101c150.526,65.123 302.1,88.584 386.063,59.754c-83.963,28.83 -235.537,5.369 -386.063,-59.754c-52.122,-22.55 -101.83,-49.139 -146.011,-78.101Z" style="fill:#ebebeb;fill-opacity:0;stroke:#800000;stroke-width:35px;"/><path d="M362.958,120.141c25.727,-1.458 51.98,-4.082 78.176,-7.813c59.92,-8.534 117.835,-22.616 167.212,-40.658c-49.377,18.042 -107.292,32.124 -167.212,40.658c-26.196,3.731 -52.449,6.355 -78.176,7.813Z" style="fill:#ebebeb;fill-opacity:0;stroke:#800000;stroke-width:35px;"/><path d="M400.568,358.462c24.652,-15.595 48.669,-33.778 71.199,-53.9c81.026,-72.367 134.472,-162.172 138.79,-233.203c-4.318,71.031 -57.764,160.836 -138.79,233.203c-22.53,20.122 -46.547,38.305 -71.199,53.9Z" style="fill:#ebebeb;fill-opacity:0;stroke:#800000;stroke-width:35px;"/></svg>