<?xml version="1.0" encoding="UTF-8" standalone="no"?><!DOCTYPE svg PUBLIC "-//W3C//DTD SVG 1.1//EN" "http://www.w3.org/Graphics/SVG/1.1/DTD/svg11.dtd"><svg width="100%" height="100%" viewBox="0 0 4445 4445" version="1.1" xmlns="http://www.w3.org/2000/svg" xmlns:xlink="http://www.w3.org/1999/xlink" xml:space="preserve" xmlns:serif="http://www.serif.com/" style="fill-rule:evenodd;clip-rule:evenodd;stroke-linecap:round;stroke-linejoin:round;stroke-miterlimit:1.5;"><path d="M1891.44,776.644c199.566,59.35 292.243,340.714 206.828,627.926c-85.416,287.211 -316.785,472.206 -516.352,412.856c-199.566,-59.35 -292.243,-340.715 -206.827,-627.926c85.415,-287.212 316.784,-472.206 516.351,-412.856Z" style="fill:#ebebeb;fill-opacity:0;stroke:#810000;stroke-width:194.44px;"/><path d="M1854.15,1073.72c6.384,3.3 -35.393,96.839 -93.235,208.752c-57.842,111.914 -109.985,200.094 -116.369,196.795c-6.384,-3.3 35.393,-96.838 93.235,-208.752c57.841,-111.913 109.984,-200.094 116.369,-196.795Z" style="fill:#ebebeb;fill-opacity:0;stroke:#800000;stroke-width:83.33px;"/><path d="M1545.45,594.537c-145.894,-261.957 -411.721,-392.135 -593.739,-290.762c-182.019,101.374 -211.303,395.911 -65.409,657.868c-145.894,-261.957 -116.61,-556.494 65.409,-657.868c182.018,-101.373 447.845,28.805 593.739,290.762Z" style="fill:#ebebeb;fill-opacity:0;stroke:#810000;stroke-width:194.44px;"/><path d="M2853.78,4183.19c701.058,0 1269.38,-518.235 1269.38,-1157.51c0,-638.847 -568.789,-1157.51 -1269.38,-1157.51c-217.955,0 -432.238,51.174 -622.213,148.594c189.975,-97.42 404.258,-148.594 622.213,-148.594c700.588,0 1269.38,518.663 1269.38,1157.51c0,639.275 -568.319,1157.51 -1269.38,1157.51Z" style="fill:#ebebeb;fill-opacity:0;stroke:#800000;stroke-width:194.44px;"/><path d="M320.146,3349.98c245.448,160.901 521.605,308.618 811.173,433.896c836.254,361.797 1678.33,492.132 2144.79,331.966c-466.457,160.166 -1308.54,29.831 -2144.79,-331.966c-289.568,-125.278 -565.725,-272.995 -811.173,-433.896Z" style="fill:#ebebeb;fill-opacity:0;stroke:#800000;stroke-width:194.44px;"/><path d="M2016.43,667.452c142.928,-8.102 288.779,-22.679 434.31,-43.406c332.894,-47.412 654.641,-125.646 928.955,-225.877c-274.314,100.231 -596.061,178.465 -928.955,225.877c-145.531,20.727 -291.382,35.304 -434.31,43.406Z" style="fill:#ebebeb;fill-opacity:0;stroke:#800000;stroke-width:194.44px;"/><path d="M2225.38,1991.45c136.952,-86.639 270.384,-187.65 395.549,-299.44c450.142,-402.044 747.067,-900.956 771.055,-1295.58c-23.988,394.62 -320.913,893.532 -771.055,1295.58c-125.165,111.79 -258.597,212.801 -395.549,299.44Z" style="fill:#ebebeb;fill-opacity:0;stroke:#800000;stroke-width:194.44px;"/></svg>