<?xml version="1.0" encoding="UTF-8" standalone="no"?>
<!DOCTYPE svg PUBLIC "-//W3C//DTD SVG 1.1//EN" "http://www.w3.org/Graphics/SVG/1.1/DTD/svg11.dtd">
<svg width="100%" height="100%" viewBox="0 0 800 200" version="1.1" xmlns="http://www.w3.org/2000/svg" xmlns:xlink="http://www.w3.org/1999/xlink" xml:space="preserve" xmlns:serif="http://www.serif.com/" style="fill-rule:evenodd;clip-rule:evenodd;stroke-linecap:round;stroke-linejoin:round;stroke-miterlimit:1.5;">
    <g transform="matrix(0.251021,0,0,0.251021,111.263,96.9852)">
        <g transform="matrix(1,0,0,1,-400,-400)">
            <path d="M340.458,139.796C376.38,150.479 393.062,201.124 377.687,252.823C362.313,304.521 320.666,337.82 284.744,327.137C248.822,316.454 232.14,265.808 247.515,214.11C262.89,162.412 304.536,129.113 340.458,139.796Z" style="fill:rgb(235,235,235);fill-opacity:0;stroke:rgb(129,0,0);stroke-width:35px;"/>
            <ellipse cx="329.952" cy="200.343" rx="3.259" ry="7.195" style="fill:rgb(235,235,235);fill-opacity:0;stroke:rgb(128,0,0);stroke-width:15px;"/>
            <path d="M278.181,107.017C251.92,59.864 204.071,36.432 171.308,54.68C138.545,72.927 133.274,125.944 159.535,173.096C133.274,125.944 138.545,72.927 171.308,54.68C204.071,36.432 251.92,59.864 278.181,107.017Z" style="fill:rgb(235,235,235);fill-opacity:0;stroke:rgb(129,0,0);stroke-width:35px;"/>
            <path d="M513.68,752.975C639.87,752.975 742.168,659.692 742.168,544.623C742.168,429.63 639.786,336.271 513.68,336.271C474.448,336.271 435.877,345.482 401.682,363.018C435.877,345.482 474.448,336.271 513.68,336.271C639.786,336.271 742.168,429.63 742.168,544.623C742.168,659.692 639.87,752.975 513.68,752.975Z" style="fill:rgb(235,235,235);fill-opacity:0;stroke:rgb(128,0,0);stroke-width:35px;"/>
            <path d="M57.626,602.996C101.807,631.958 151.515,658.547 203.637,681.097C354.163,746.22 505.737,769.681 589.7,740.851C505.737,769.681 354.163,746.22 203.637,681.097C151.515,658.547 101.807,631.958 57.626,602.996Z" style="fill:rgb(235,235,235);fill-opacity:0;stroke:rgb(128,0,0);stroke-width:35px;"/>
            <path d="M362.958,120.141C388.685,118.683 414.938,116.059 441.134,112.328C501.054,103.794 558.969,89.712 608.346,71.67C558.969,89.712 501.054,103.794 441.134,112.328C414.938,116.059 388.685,118.683 362.958,120.141Z" style="fill:rgb(235,235,235);fill-opacity:0;stroke:rgb(128,0,0);stroke-width:35px;"/>
            <path d="M400.568,358.462C425.22,342.867 449.237,324.684 471.767,304.562C552.793,232.195 606.239,142.39 610.557,71.359C606.239,142.39 552.793,232.195 471.767,304.562C449.237,324.684 425.22,342.867 400.568,358.462Z" style="fill:rgb(235,235,235);fill-opacity:0;stroke:rgb(128,0,0);stroke-width:35px;"/>
        </g>
    </g>
    <g transform="matrix(1,0,0,1,-27.6339,-10.0951)">
        <path d="M336.898,104.132C336.898,89.372 327.878,78.384 309.838,70.84C299.014,66.904 284.91,64.772 267.69,64.772C267.034,66.904 266.87,68.708 266.87,70.184C266.87,71.496 267.034,72.972 267.362,74.94C281.138,75.268 292.946,77.072 302.458,80.024C317.382,85.272 324.926,93.144 324.926,103.64C324.598,119.712 312.298,127.912 287.862,127.912C280.318,127.912 272.61,126.6 264.41,123.648C263.098,125.944 262.606,127.584 262.606,128.896C262.278,130.208 262.278,131.848 262.278,133.816C270.314,137.424 278.678,139.228 287.534,139.228C292.782,139.228 297.21,138.9 300.49,138.408C312.626,160.384 320.006,172.356 322.794,174.16C326.566,172.848 329.354,171.044 330.994,169.076C330.502,167.436 324.27,156.448 312.298,135.948C328.534,130.7 336.734,120.04 336.898,104.132ZM257.686,64.444C255.554,63.788 253.586,63.296 251.782,63.296C248.994,63.296 247.19,63.46 246.37,63.624C244.402,83.632 243.254,109.38 243.09,141.196C243.09,149.724 243.254,160.22 243.91,172.684C244.894,173.012 246.698,173.012 248.994,173.012C251.29,173.012 253.094,172.848 254.57,172.356C254.57,171.864 254.898,153.496 255.882,117.088C257.03,85.6 257.686,68.052 257.686,64.444Z" style="fill:rgb(128,0,0);fill-rule:nonzero;stroke:rgb(128,0,0);stroke-width:1px;stroke-linecap:butt;stroke-miterlimit:1.41421;"/>
        <path d="M418.898,140.212C418.898,129.388 414.962,120.696 407.254,113.808C404.302,114.956 402.006,117.088 400.202,120.204C405.122,126.108 407.582,132.668 407.582,139.72C407.582,143.656 406.434,147.264 404.138,150.708C401.514,154.316 398.726,157.104 395.774,159.072C396.922,161.04 397.742,162.352 398.07,163.008C398.398,163.828 399.218,165.14 400.53,167.108C405.45,165.468 409.878,162.024 413.65,156.776C417.094,151.692 418.898,146.116 418.898,140.212ZM399.546,108.56C394.954,105.28 389.378,103.64 382.818,103.64C371.994,103.968 363.138,107.74 356.414,115.12C350.51,122.172 347.558,130.372 347.558,139.72C347.558,149.068 350.674,157.268 357.07,164.156C363.302,170.716 371.338,173.832 381.342,173.832C385.934,173.832 389.87,172.848 392.986,170.716C392.658,167.436 391.838,164.648 390.198,162.188C387.246,163.172 384.294,163.664 381.342,163.664C375.11,163.664 370.026,161.368 365.762,156.776C361.498,151.856 359.53,146.116 359.53,139.884C359.53,133.488 361.334,127.912 365.106,122.992C369.862,117.088 375.766,114.136 382.982,113.972C387.082,113.972 391.182,115.12 395.446,117.252C396.102,116.596 396.758,115.448 397.578,113.808C398.726,112.168 399.382,110.528 399.546,108.56Z" style="fill:rgb(128,0,0);fill-rule:nonzero;stroke:rgb(128,0,0);stroke-width:1px;stroke-linecap:butt;stroke-miterlimit:1.41421;"/>
        <path d="M493.026,160.056C490.566,155.628 488.598,153.168 487.122,152.84C478.266,159.4 470.394,162.68 463.342,162.68C458.422,162.68 453.502,160.876 448.418,157.268C443.006,152.676 440.382,146.608 440.382,139.064C440.874,124.304 448.582,116.104 463.342,114.628C472.854,114.792 480.398,117.744 485.81,123.648C486.794,123.32 487.942,122.664 489.254,121.352C489.582,121.188 490.402,120.204 492.042,118.236C489.418,113.644 485.318,110.036 479.742,107.412C474.658,105.116 469.246,103.968 463.342,103.968C440.874,105.608 429.394,117.252 428.738,138.9C428.738,150.052 432.51,158.744 440.218,165.14C447.27,170.716 455.142,173.504 463.834,173.504C474.33,173.504 484.17,169.076 493.026,160.056Z" style="fill:rgb(128,0,0);fill-rule:nonzero;stroke:rgb(128,0,0);stroke-width:1px;stroke-linecap:butt;stroke-miterlimit:1.41421;"/>
        <path d="M525.334,69.528C524.186,68.544 521.726,67.396 518.118,65.756C514.51,64.444 511.886,63.624 510.41,63.624C508.114,66.904 506.638,70.348 506.146,73.956C506.802,74.94 509.262,76.252 513.198,77.728C517.134,79.368 519.922,80.024 521.562,80.024C523.858,75.432 525.006,71.824 525.334,69.528ZM521.562,139.228C521.562,118.892 521.234,107.74 520.578,105.444C519.102,104.788 517.298,104.296 515.002,104.296C512.378,104.296 510.574,104.624 509.426,104.952C508.77,106.92 508.442,116.924 508.442,135.128C508.442,157.924 508.934,170.552 510.246,172.848C511.066,173.176 512.87,173.34 515.658,173.34C517.954,173.34 519.758,173.012 521.07,172.356C521.398,170.388 521.562,159.236 521.562,139.228Z" style="fill:rgb(128,0,0);fill-rule:nonzero;stroke:rgb(128,0,0);stroke-width:1px;stroke-linecap:butt;stroke-miterlimit:1.41421;"/>
        <path d="M615.042,134.964C615.042,126.764 612.746,119.548 608.154,113.644C602.742,107.412 595.854,104.132 587.654,104.132C576.83,104.46 568.138,107.576 561.414,113.644C561.414,117.416 562.89,120.368 565.842,122.336C574.042,118.072 580.766,115.776 586.342,115.448C591.098,115.448 595.198,117.252 598.642,120.696C601.594,123.976 603.07,129.06 603.07,135.948C603.07,142.836 601.594,154.48 598.806,170.716C600.774,172.192 604.054,173.012 608.974,173.012C612.746,164.156 614.714,151.528 615.042,134.964ZM556.658,166.944C556.658,158.088 556.166,145.952 555.51,130.208C554.854,117.088 554.362,108.724 553.87,104.788C551.574,104.46 549.77,104.296 548.786,104.296C547.146,104.296 545.342,104.624 543.374,105.116C543.374,112.66 543.374,121.352 543.702,131.192C544.194,155.792 545.014,169.568 545.998,172.684C547.31,173.176 549.114,173.34 551.41,173.34C553.542,173.34 555.182,173.012 556.494,172.356C556.494,172.028 556.658,170.224 556.658,166.944Z" style="fill:rgb(128,0,0);fill-rule:nonzero;stroke:rgb(128,0,0);stroke-width:1px;stroke-linecap:butt;stroke-miterlimit:1.41421;"/>
        <path d="M697.534,167.436C697.534,160.22 697.206,149.068 696.55,133.98C695.894,118.564 694.91,109.38 693.762,106.428C693.598,106.1 691.958,105.772 688.842,105.772C686.546,106.1 684.742,106.428 683.594,106.92C683.594,115.612 684.086,129.388 685.398,148.248C676.87,157.76 668.342,162.516 659.978,162.516C653.746,162.516 648.662,160.548 644.562,156.284C640.298,151.692 638.33,146.116 638.33,139.556C638.33,132.176 640.626,126.108 645.382,121.516C649.974,117.416 654.73,115.284 659.814,115.12C665.39,115.12 670.802,117.416 675.886,121.844C678.182,120.204 679.822,117.908 680.806,114.628C675.558,107.74 668.506,104.296 659.814,104.296C651.122,104.46 643.578,107.248 637.346,112.824C630.13,119.712 626.522,128.732 626.522,139.556C626.522,150.052 629.966,158.744 637.182,165.468C643.414,170.716 650.958,173.176 659.814,173.176C668.998,173.176 677.854,168.912 686.382,160.056C686.382,162.188 686.71,166.288 687.694,172.52C689.99,172.52 693.27,172.52 697.37,172.356C697.37,170.552 697.534,168.912 697.534,167.436Z" style="fill:rgb(128,0,0);fill-rule:nonzero;stroke:rgb(128,0,0);stroke-width:1px;stroke-linecap:butt;stroke-miterlimit:1.41421;"/>
        <path d="M774.45,165.796C763.626,156.284 754.77,148.084 747.718,141.196C750.834,137.916 756.082,131.684 763.462,122.664C768.71,116.104 771.662,112.004 772.154,110.036C770.514,107.576 768.218,105.608 764.938,104.296C758.706,110.2 750.178,119.548 739.19,132.176C727.71,119.056 719.674,109.708 714.918,104.296C711.966,104.788 709.342,106.592 707.374,109.544C711.966,118.072 719.674,128.568 730.826,141.196C722.462,151.856 716.066,160.548 711.802,167.436C713.77,170.552 716.23,172.684 719.182,173.668C727.382,164.484 734.27,156.776 739.846,150.544C753.13,163.008 762.806,170.552 769.038,173.34C770.022,173.012 771.17,171.864 772.81,170.06C773.794,168.42 774.45,166.944 774.45,165.796Z" style="fill:rgb(128,0,0);fill-rule:nonzero;stroke:rgb(128,0,0);stroke-width:1px;stroke-linecap:butt;stroke-miterlimit:1.41421;"/>
    </g>
</svg>
