<?xml version="1.0" encoding="UTF-8" standalone="no"?>
<!DOCTYPE svg PUBLIC "-//W3C//DTD SVG 1.1//EN" "http://www.w3.org/Graphics/SVG/1.1/DTD/svg11.dtd">
<svg width="100%" height="100%" viewBox="0 0 800 800" version="1.1" xmlns="http://www.w3.org/2000/svg" xmlns:xlink="http://www.w3.org/1999/xlink" xml:space="preserve" xmlns:serif="http://www.serif.com/" style="fill-rule:evenodd;clip-rule:evenodd;stroke-linecap:round;stroke-linejoin:round;stroke-miterlimit:1.5;">
    <g transform="matrix(-5.71233e-17,0.932895,-0.772668,-4.73122e-17,707.908,26.8421)">
        <path d="M200,18L600,18L780,400L600,779L200,779L20,400L200,18Z" style="fill:rgb(17,5,175);stroke:white;stroke-width:1.17px;"/>
    </g>
    <g transform="matrix(-8.84219e-17,1.39158,-1.41781,-8.3604e-17,709.059,65.7662)">
        <path d="M240.071,217L374.142,425.345L106,425.345L240.071,217Z" style="fill:rgb(21,0,255);"/>
    </g>
    <g id="ricinante" transform="matrix(1.6027,0,0,1.74773,-77.1037,-117.512)">
        <g transform="matrix(0.333858,0.0917699,-0.114911,0.357135,200.342,128.569)">
            <ellipse cx="306.557" cy="230.158" rx="72.973" ry="90.743" style="fill:rgb(0,65,75);fill-opacity:0;stroke:white;stroke-width:27.97px;"/>
        </g>
        <g transform="matrix(-0.745663,0,0,0.438429,513.479,119.797)">
            <ellipse cx="308.332" cy="245.813" rx="3.259" ry="7.195" style="fill:white;stroke:white;stroke-width:4.98px;"/>
        </g>
        <g transform="matrix(0.327345,-0.270229,0.249345,0.258037,99.5931,231.665)">
            <path d="M273.244,481.783C297.784,486.573 323.391,489.012 349.153,489.012C441.805,489.012 526.821,457.636 569.921,407.534C526.821,457.636 441.805,489.012 349.153,489.012C323.391,489.012 297.784,486.573 273.244,481.783Z" style="fill:rgb(0,65,75);fill-opacity:0;stroke:white;stroke-width:26px;"/>
        </g>
        <g transform="matrix(0.428835,-0.0564522,0.0527792,0.342517,111.567,1.10204)">
            <path d="M349.509,637.402C371.696,639.586 394.476,640.69 417.341,640.69C469.644,640.69 520.906,634.915 565.347,624.016C520.906,634.915 469.644,640.69 417.341,640.69C394.476,640.69 371.696,639.586 349.509,637.402Z" style="fill:rgb(0,65,75);fill-opacity:0;stroke:white;stroke-width:26.14px;"/>
        </g>
        <g transform="matrix(0.482422,0.192911,-0.14863,0.31753,153.302,109.091)">
            <path d="M258.595,654.334C295.66,663.372 335.666,668.037 376.108,668.037C492.903,668.037 598.601,629.383 645.325,569.585C598.601,629.383 492.903,668.037 376.108,668.037C335.666,668.037 295.66,663.372 258.595,654.334Z" style="fill:rgb(0,65,75);fill-opacity:0;stroke:white;stroke-width:23.11px;"/>
        </g>
        <g transform="matrix(0.323932,6.92892e-31,0,0.410835,199.289,110.515)">
            <path d="M469.91,749.987C615.728,749.987 733.937,671.432 733.937,574.529C733.937,477.692 615.631,399.072 469.91,399.072C424.577,399.072 380.006,406.829 340.492,421.596C380.006,406.829 424.577,399.072 469.91,399.072C615.631,399.072 733.937,477.692 733.937,574.529C733.937,671.432 615.728,749.987 469.91,749.987Z" style="fill:rgb(0,65,75);fill-opacity:0;stroke:white;stroke-width:27.13px;"/>
        </g>
        <g transform="matrix(-0.304298,0.156644,-0.196144,-0.325514,379.58,233.482)">
            <path d="M233.584,230.158C233.584,280.274 266.255,320.901 306.557,320.901C346.859,320.901 379.531,280.274 379.531,230.158C379.531,280.274 346.859,320.901 306.557,320.901C266.255,320.901 233.584,280.274 233.584,230.158Z" style="fill:rgb(0,65,75);fill-opacity:0;stroke:white;stroke-width:28.13px;"/>
        </g>
    </g>
</svg>
