<?xml version="1.0" encoding="UTF-8" standalone="no"?>
<!DOCTYPE svg PUBLIC "-//W3C//DTD SVG 1.1//EN" "http://www.w3.org/Graphics/SVG/1.1/DTD/svg11.dtd">
<svg width="100%" height="100%" viewBox="0 0 600 200" version="1.1" xmlns="http://www.w3.org/2000/svg" xmlns:xlink="http://www.w3.org/1999/xlink" xml:space="preserve" xmlns:serif="http://www.serif.com/" style="fill-rule:evenodd;clip-rule:evenodd;stroke-linecap:round;stroke-linejoin:round;stroke-miterlimit:1.5;">
    <g transform="matrix(1.19641,0,0,1.19641,-67.1707,-59.8713)">
        <g transform="matrix(137.077,0,0,137.077,234.89,173.176)">
            <path d="M0.622,-0.421C0.622,-0.511 0.567,-0.578 0.457,-0.624C0.391,-0.648 0.305,-0.661 0.2,-0.661C0.196,-0.648 0.195,-0.637 0.195,-0.628C0.195,-0.62 0.196,-0.611 0.198,-0.599C0.282,-0.597 0.354,-0.586 0.412,-0.568C0.503,-0.536 0.549,-0.488 0.549,-0.424C0.547,-0.326 0.472,-0.276 0.323,-0.276C0.277,-0.276 0.23,-0.284 0.18,-0.302C0.172,-0.288 0.169,-0.278 0.169,-0.27C0.167,-0.262 0.167,-0.252 0.167,-0.24C0.216,-0.218 0.267,-0.207 0.321,-0.207C0.353,-0.207 0.38,-0.209 0.4,-0.212C0.474,-0.078 0.519,-0.005 0.536,0.006C0.559,-0.002 0.576,-0.013 0.586,-0.025C0.583,-0.035 0.545,-0.102 0.472,-0.227C0.571,-0.259 0.621,-0.324 0.622,-0.421ZM0.139,-0.663C0.126,-0.667 0.114,-0.67 0.103,-0.67C0.086,-0.67 0.075,-0.669 0.07,-0.668C0.058,-0.546 0.051,-0.389 0.05,-0.195C0.05,-0.143 0.051,-0.079 0.055,-0.003C0.061,-0.001 0.072,-0.001 0.086,-0.001C0.1,-0.001 0.111,-0.002 0.12,-0.005C0.12,-0.008 0.122,-0.12 0.128,-0.342C0.135,-0.534 0.139,-0.641 0.139,-0.663Z" style="fill:rgb(22,7,228);fill-rule:nonzero;"/>
        </g>
        <g transform="matrix(137.077,0,0,137.077,324.95,173.176)">
            <path d="M0.177,-0.632C0.17,-0.638 0.155,-0.645 0.133,-0.655C0.111,-0.663 0.095,-0.668 0.086,-0.668C0.072,-0.648 0.063,-0.627 0.06,-0.605C0.064,-0.599 0.079,-0.591 0.103,-0.582C0.127,-0.572 0.144,-0.568 0.154,-0.568C0.168,-0.596 0.175,-0.618 0.177,-0.632ZM0.154,-0.207C0.154,-0.331 0.152,-0.399 0.148,-0.413C0.139,-0.417 0.128,-0.42 0.114,-0.42C0.098,-0.42 0.087,-0.418 0.08,-0.416C0.076,-0.404 0.074,-0.343 0.074,-0.232C0.074,-0.093 0.077,-0.016 0.085,-0.002C0.09,0 0.101,0.001 0.118,0.001C0.132,0.001 0.143,-0.001 0.151,-0.005C0.153,-0.017 0.154,-0.085 0.154,-0.207Z" style="fill:rgb(22,7,228);fill-rule:nonzero;"/>
        </g>
        <g transform="matrix(137.077,0,0,137.077,357.437,173.176)">
            <path d="M0.471,0.071C0.471,-0.133 0.467,-0.276 0.459,-0.357C0.451,-0.359 0.439,-0.361 0.425,-0.361C0.416,-0.361 0.407,-0.359 0.397,-0.356L0.397,-0.272C0.397,-0.234 0.397,-0.181 0.399,-0.113C0.4,-0.011 0.401,0.046 0.401,0.06C0.401,0.076 0.4,0.087 0.398,0.092C0.398,0.104 0.379,0.115 0.343,0.124C0.318,0.127 0.294,0.129 0.272,0.13C0.27,0.136 0.27,0.145 0.27,0.157C0.27,0.169 0.271,0.177 0.275,0.183C0.286,0.187 0.302,0.189 0.324,0.189C0.351,0.189 0.379,0.185 0.409,0.178C0.446,0.164 0.466,0.147 0.469,0.127C0.47,0.119 0.471,0.1 0.471,0.071ZM0.368,-0.362C0.33,-0.402 0.284,-0.422 0.232,-0.422C0.172,-0.422 0.123,-0.401 0.085,-0.36C0.048,-0.316 0.03,-0.265 0.03,-0.206C0.03,-0.143 0.047,-0.092 0.083,-0.052C0.119,-0.014 0.168,0.004 0.232,0.004C0.282,0.002 0.329,-0.017 0.373,-0.055C0.361,-0.082 0.352,-0.099 0.348,-0.106C0.306,-0.08 0.266,-0.067 0.228,-0.066C0.19,-0.066 0.159,-0.078 0.136,-0.103C0.114,-0.128 0.104,-0.161 0.104,-0.203C0.104,-0.243 0.116,-0.277 0.141,-0.307C0.166,-0.335 0.197,-0.35 0.235,-0.35C0.271,-0.35 0.307,-0.338 0.343,-0.315C0.358,-0.331 0.366,-0.347 0.368,-0.362Z" style="fill:rgb(22,7,228);fill-rule:nonzero;"/>
        </g>
        <g transform="matrix(137.077,0,0,137.077,427.483,173.176)">
            <path d="M0.177,-0.632C0.17,-0.638 0.155,-0.645 0.133,-0.655C0.111,-0.663 0.095,-0.668 0.086,-0.668C0.072,-0.648 0.063,-0.627 0.06,-0.605C0.064,-0.599 0.079,-0.591 0.103,-0.582C0.127,-0.572 0.144,-0.568 0.154,-0.568C0.168,-0.596 0.175,-0.618 0.177,-0.632ZM0.154,-0.207C0.154,-0.331 0.152,-0.399 0.148,-0.413C0.139,-0.417 0.128,-0.42 0.114,-0.42C0.098,-0.42 0.087,-0.418 0.08,-0.416C0.076,-0.404 0.074,-0.343 0.074,-0.232C0.074,-0.093 0.077,-0.016 0.085,-0.002C0.09,0 0.101,0.001 0.118,0.001C0.132,0.001 0.143,-0.001 0.151,-0.005C0.153,-0.017 0.154,-0.085 0.154,-0.207Z" style="fill:rgb(22,7,228);fill-rule:nonzero;"/>
        </g>
        <g transform="matrix(137.077,0,0,137.077,459.971,173.176)">
            <path d="M0.389,-0.358C0.334,-0.401 0.27,-0.423 0.198,-0.425C0.149,-0.425 0.112,-0.417 0.087,-0.403C0.05,-0.383 0.031,-0.355 0.03,-0.318C0.03,-0.272 0.057,-0.238 0.113,-0.214C0.172,-0.19 0.206,-0.175 0.216,-0.171C0.25,-0.153 0.267,-0.132 0.267,-0.109C0.264,-0.077 0.24,-0.06 0.196,-0.06C0.158,-0.06 0.117,-0.078 0.074,-0.115C0.065,-0.106 0.059,-0.1 0.056,-0.097C0.048,-0.086 0.043,-0.077 0.041,-0.071C0.086,-0.021 0.137,0.004 0.195,0.004C0.286,0.002 0.334,-0.034 0.34,-0.108C0.34,-0.152 0.316,-0.187 0.269,-0.212C0.253,-0.22 0.215,-0.237 0.157,-0.263C0.122,-0.277 0.105,-0.295 0.105,-0.317C0.105,-0.348 0.135,-0.364 0.196,-0.364C0.252,-0.364 0.306,-0.345 0.36,-0.309C0.368,-0.314 0.374,-0.321 0.379,-0.331C0.385,-0.342 0.389,-0.351 0.389,-0.358Z" style="fill:rgb(22,7,228);fill-rule:nonzero;"/>
        </g>
    </g>
    <g transform="matrix(0.267028,0,0,0.267028,109.678,101.255)">
        <g transform="matrix(1,0,0,1,-400,-400)">
            <g transform="matrix(-5.71233e-17,0.932895,-0.772668,-4.73122e-17,707.908,26.8421)">
                <path d="M200,18L600,18L780,400L600,779L200,779L20,400L200,18Z" style="fill:rgb(17,5,175);stroke:white;stroke-width:1.17px;"/>
            </g>
            <g transform="matrix(-8.84219e-17,1.39158,-1.41781,-8.3604e-17,709.059,65.7662)">
                <path d="M240.071,217L374.142,425.345L106,425.345L240.071,217Z" style="fill:rgb(21,0,255);"/>
            </g>
            <g id="ricinante" transform="matrix(1.6027,0,0,1.74773,-77.1037,-117.512)">
                <g transform="matrix(0.333858,0.0917699,-0.114911,0.357135,200.342,128.569)">
                    <ellipse cx="306.557" cy="230.158" rx="72.973" ry="90.743" style="fill:rgb(0,65,75);fill-opacity:0;stroke:white;stroke-width:27.97px;"/>
                </g>
                <g transform="matrix(-0.745663,0,0,0.438429,513.479,119.797)">
                    <ellipse cx="308.332" cy="245.813" rx="3.259" ry="7.195" style="fill:white;stroke:white;stroke-width:4.98px;"/>
                </g>
                <g transform="matrix(0.327345,-0.270229,0.249345,0.258037,99.5931,231.665)">
                    <path d="M273.244,481.783C297.784,486.573 323.391,489.012 349.153,489.012C441.805,489.012 526.821,457.636 569.921,407.534C526.821,457.636 441.805,489.012 349.153,489.012C323.391,489.012 297.784,486.573 273.244,481.783Z" style="fill:rgb(0,65,75);fill-opacity:0;stroke:white;stroke-width:26px;"/>
                </g>
                <g transform="matrix(0.428835,-0.0564522,0.0527792,0.342517,111.567,1.10204)">
                    <path d="M349.509,637.402C371.696,639.586 394.476,640.69 417.341,640.69C469.644,640.69 520.906,634.915 565.347,624.016C520.906,634.915 469.644,640.69 417.341,640.69C394.476,640.69 371.696,639.586 349.509,637.402Z" style="fill:rgb(0,65,75);fill-opacity:0;stroke:white;stroke-width:26.14px;"/>
                </g>
                <g transform="matrix(0.482422,0.192911,-0.14863,0.31753,153.302,109.091)">
                    <path d="M258.595,654.334C295.66,663.372 335.666,668.037 376.108,668.037C492.903,668.037 598.601,629.383 645.325,569.585C598.601,629.383 492.903,668.037 376.108,668.037C335.666,668.037 295.66,663.372 258.595,654.334Z" style="fill:rgb(0,65,75);fill-opacity:0;stroke:white;stroke-width:23.11px;"/>
                </g>
                <g transform="matrix(0.323932,6.92892e-31,0,0.410835,199.289,110.515)">
                    <path d="M469.91,749.987C615.728,749.987 733.937,671.432 733.937,574.529C733.937,477.692 615.631,399.072 469.91,399.072C424.577,399.072 380.006,406.829 340.492,421.596C380.006,406.829 424.577,399.072 469.91,399.072C615.631,399.072 733.937,477.692 733.937,574.529C733.937,671.432 615.728,749.987 469.91,749.987Z" style="fill:rgb(0,65,75);fill-opacity:0;stroke:white;stroke-width:27.13px;"/>
                </g>
                <g transform="matrix(-0.304298,0.156644,-0.196144,-0.325514,379.58,233.482)">
                    <path d="M233.584,230.158C233.584,280.274 266.255,320.901 306.557,320.901C346.859,320.901 379.531,280.274 379.531,230.158C379.531,280.274 346.859,320.901 306.557,320.901C266.255,320.901 233.584,280.274 233.584,230.158Z" style="fill:rgb(0,65,75);fill-opacity:0;stroke:white;stroke-width:28.13px;"/>
                </g>
            </g>
        </g>
    </g>
</svg>
